<?xml version="1.0" encoding="iso-8859-1"?>
<!-- Generator: Adobe Illustrator 16.0.0, SVG Export Plug-In . SVG Version: 6.00 Build 0)  -->
<!DOCTYPE svg PUBLIC "-//W3C//DTD SVG 1.1//EN" "http://www.w3.org/Graphics/SVG/1.1/DTD/svg11.dtd">
<svg version="1.1" id="Capa_1" xmlns="http://www.w3.org/2000/svg" xmlns:xlink="http://www.w3.org/1999/xlink" x="0px" y="0px"
	 width="71.904px" height="71.903px" viewBox="0 0 71.904 71.903" style="enable-background:new 0 0 71.904 71.903;"
	 xml:space="preserve">
<g>
	<g>
		<g>
			<path d="M68.882,53.757c-0.674-1.344-1.567-1.567-2.912-2.016c-5.824-2.24-10.977-3.359-16.801-5.377
				c-0.447-0.224-2.017-1.119-2.017-4.031c0-1.119-0.225-1.791-1.567-1.791c-0.447,0-0.226,0-0.447-0.896
				c-0.448-2.688-0.225-4.033-0.225-4.48c0-0.448,0.446-0.673,0.672-0.896c2.017-2.688,2.465-6.047,2.465-7.84
				c0,0,0.447,0.225,0.672-0.896c0.447-1.12,0.447-1.567,0.896-2.912c0.448-1.119,0.448-3.359-0.896-3.359
				c-0.896,0.225-0.672,0-0.672-0.896v-7.615c-0.225-2.688-1.793-4.257-3.137-5.152c-1.793-1.12-2.465-1.568-3.359-2.24
				c-0.896-0.672-0.672-1.344,0-2.24c0.447-0.447,1.119-0.896,1.345-1.12c0,0-0.226,0-0.448,0c-0.447,0-4.703,0.673-6.271,1.12
				c-3.359,0.896-6.496,1.792-9.185,4.032c-1.792,1.344-3.359,3.36-3.359,5.601c0,1.119,0,5.376,0,7.615c0,0.672,0,1.12-0.896,0.896
				c-1.568-0.225-0.672,2.912-0.672,3.137c0.224,1.119,0.672,2.017,1.119,3.359c0.225,0.896,0.673,0.896,0.673,0.896
				c0.447,2.017,1.119,5.601,2.911,7.84c0.225,0.225,0.448,0.673,0.448,1.12c-0.225,1.345-0.225,3.136-0.448,4.479
				c0,0.226-0.225,0.896-0.672,0.896c-1.12,0-1.567,0.896-1.345,1.793c0,2.016-1.344,3.584-2.016,4.03
				c-2.912,1.345-12.992,4.257-16.353,5.375c-2.24,0.673-2.912,1.347-3.359,2.24l-2.912,7.394c12.769,0,19.264,7.84,32.479,10.08
				c0,0,0,0,0.225,0l-3.584-6.271l6.942-19.264l-2.239-4.705h4.479l-2.24,4.705l6.943,19.264l-4.257,5.824c0.226,0,0.449,0,0.449,0
				c13.663-2.24,23.071-10.08,32.479-10.08L68.882,53.757z M60.594,57.566H50.289v-1.793h10.306V57.566z" fill=""/>
		</g>
	</g>
</g>
<g>
</g>
<g>
</g>
<g>
</g>
<g>
</g>
<g>
</g>
<g>
</g>
<g>
</g>
<g>
</g>
<g>
</g>
<g>
</g>
<g>
</g>
<g>
</g>
<g>
</g>
<g>
</g>
<g>
</g>
</svg>
