<svg xmlns="http://www.w3.org/2000/svg" xmlns:xlink="http://www.w3.org/1999/xlink" width="77" height="70" viewBox="0 0 77 70">
    <defs>
        <path id="1s42a" d="M394.272 819.942a.07.07 0 0 1 .02.018c.004.017-.01.056-.023.065 0 0-.007.003-.028.003H366.45c-.02 0-.029-.003-.029-.003-.013-.01-.027-.05-.022-.063 0 0 .004-.008.02-.02 3.68-2.793 5.357-6.655 6.12-9.577h15.615c.777 2.99 2.465 6.805 6.118 9.577zM412.052 753h-40.847a1.124 1.124 0 0 0 0 2.247h40.847a4.396 4.396 0 0 1 4.392 4.392v38.166h-53.082v-42.558h3.255a1.124 1.124 0 0 0 0-2.247H348.64a6.646 6.646 0 0 0-6.639 6.639v47.163a3.567 3.567 0 0 0 3.563 3.563h24.643c-.732 2.482-2.2 5.553-5.145 7.787a2.264 2.264 0 0 0-.786 2.559 2.266 2.266 0 0 0 2.176 1.564h27.793a2.267 2.267 0 0 0 2.176-1.564 2.264 2.264 0 0 0-.786-2.559c-2.928-2.222-4.404-5.26-5.147-7.787h11.384a1.124 1.124 0 0 0 0-2.247h-56.308c-.726 0-1.316-.59-1.316-1.316v-6.75h8.491a1.124 1.124 0 0 0 0-2.246h-8.491v-38.167a4.396 4.396 0 0 1 4.392-4.392h12.477v42.559h-3.793a1.124 1.124 0 0 0 0 2.246h59.12v6.75c0 .726-.59 1.316-1.316 1.316h-8.673a1.124 1.124 0 0 0 0 2.247h8.673a3.567 3.567 0 0 0 3.563-3.563v-47.163a6.646 6.646 0 0 0-6.638-6.639z" />
        <path id="1s42b" d="M380.895 804.086a.551.551 0 0 1-1.1 0 .55.55 0 1 1 1.1 0zm-3.346 0a2.8 2.8 0 0 0 2.796 2.797 2.8 2.8 0 0 0 2.797-2.797 2.8 2.8 0 0 0-2.797-2.796 2.8 2.8 0 0 0-2.796 2.796z" />
        <path id="1s42c" d="M350.484 769.718c.62 0 1.123-.504 1.123-1.124v-.229a1.124 1.124 0 0 0-2.247 0v.23c0 .62.504 1.123 1.124 1.123z" />
        <path id="1s42d" d="M355.148 768.594v-.229a1.124 1.124 0 0 0-2.247 0v.23a1.124 1.124 0 0 0 2.247 0z" />
        <path id="1s42e" d="M354.916 771.618h-5.323a1.124 1.124 0 0 0 0 2.247h5.323a1.124 1.124 0 0 0 0-2.247z" />
        <path id="1s42f" d="M354.916 774.975h-5.323a1.124 1.124 0 0 0 0 2.247h5.323a1.124 1.124 0 0 0 0-2.247z" />
        <path id="1s42g" d="M354.916 778.33h-5.323a1.124 1.124 0 0 0 0 2.247h5.323a1.124 1.124 0 0 0 0-2.247z" />
        <path id="1s42h" d="M376.649 770.248a1.118 1.118 0 0 1-2.235 0v-2.906a1.12 1.12 0 0 1 1.117-1.119 1.12 1.12 0 0 1 1.118 1.119zm-1.12-6.27a3.368 3.368 0 0 0-3.364 3.365v2.906a3.368 3.368 0 0 0 3.365 3.365 3.369 3.369 0 0 0 3.364-3.365v-2.906a3.367 3.367 0 0 0-3.364-3.365z" />
        <path id="1s42i" d="M394.485 770.248a1.118 1.118 0 0 1-2.235 0v-2.906a1.12 1.12 0 0 1 1.118-1.119 1.12 1.12 0 0 1 1.117 1.119zm-1.117-6.27a3.368 3.368 0 0 0-3.365 3.365v2.906a3.368 3.368 0 0 0 3.365 3.365 3.369 3.369 0 0 0 3.364-3.365v-2.906a3.368 3.368 0 0 0-3.364-3.365z" />
        <path id="1s42j" d="M382.153 763.978c-.62 0-1.123.503-1.123 1.123v7.163a1.124 1.124 0 0 0 2.247 0v-7.163c0-.621-.504-1.123-1.124-1.123z" />
        <path id="1s42k" d="M386.627 763.978c-.62 0-1.123.503-1.123 1.123v7.163a1.124 1.124 0 0 0 2.247 0v-7.163c0-.621-.504-1.123-1.124-1.123z" />
        <path id="1s42l" d="M400.062 763.978c-.62 0-1.124.503-1.124 1.123v7.163a1.124 1.124 0 0 0 2.247 0v-7.163c0-.621-.503-1.123-1.123-1.123z" />
        <path id="1s42m" d="M405.66 772.262v-7.16a1.124 1.124 0 0 0-2.246 0v7.162a1.124 1.124 0 1 0 2.247-.002z" />
        <path id="1s42n" d="M403.72 777.851v2.906a1.118 1.118 0 0 1-2.235 0v-2.906a1.118 1.118 0 0 1 2.234 0zm-4.484 0v2.906a3.368 3.368 0 0 0 3.364 3.364 3.369 3.369 0 0 0 3.365-3.364v-2.906a3.368 3.368 0 0 0-3.365-3.364 3.369 3.369 0 0 0-3.364 3.364z" />
        <path id="1s42o" d="M382.459 774.487c-.62 0-1.124.503-1.124 1.123v7.161a1.124 1.124 0 0 0 2.247 0v-7.16c0-.62-.503-1.124-1.123-1.124z" />
        <path id="1s42p" d="M386.933 774.487c-.62 0-1.124.503-1.124 1.123v7.161a1.124 1.124 0 0 0 2.247 0v-7.16c0-.62-.502-1.124-1.123-1.124z" />
        <path id="1s42q" d="M372.474 775.61v7.161a1.124 1.124 0 0 0 2.247 0v-7.16a1.124 1.124 0 0 0-2.247 0z" />
        <path id="1s42r" d="M378.073 774.487c-.62 0-1.123.503-1.123 1.123v7.161a1.124 1.124 0 0 0 2.246 0v-7.16c0-.62-.503-1.124-1.123-1.124z" />
        <path id="1s42s" d="M395.906 774.714c-.62 0-1.123.504-1.123 1.124v7.161a1.124 1.124 0 0 0 2.247 0v-7.161c0-.622-.502-1.124-1.124-1.124z" />
        <path id="1s42t" d="M392.556 783v-7.162a1.124 1.124 0 0 0-2.247 0v7.161a1.124 1.124 0 0 0 2.247 0z" />
        <path id="1s42u" d="M383.753 789.89v.175a1.124 1.124 0 0 0 2.247 0v-.176a1.124 1.124 0 0 0-2.247 0z" />
        <path id="1s42v" d="M388.913 788.766c-.62 0-1.123.503-1.123 1.123v.176a1.124 1.124 0 0 0 2.246 0v-.176c0-.62-.503-1.123-1.123-1.123z" />
        <path id="1s42w" d="M392.95 791.188c.62 0 1.123-.503 1.123-1.123v-.176a1.124 1.124 0 0 0-2.247 0v.176c0 .621.504 1.123 1.124 1.123z" />
        <style>
            .desk-icon-fill {
                fill="#9a9a9a"
            }
        </style>
    </defs>
    <g>
        <g transform="translate(-342 -753)">
            <g>
                <g>
                    <use class="desk-icon-fill" xlink:href="#1s42a" />
                </g>
                <g>
                    <use class="desk-icon-fill" xlink:href="#1s42b" />
                </g>
                <g>
                    <use class="desk-icon-fill" xlink:href="#1s42c" />
                </g>
                <g>
                    <use class="desk-icon-fill" xlink:href="#1s42d" />
                </g>
                <g>
                    <use class="desk-icon-fill" xlink:href="#1s42e" />
                </g>
                <g>
                    <use class="desk-icon-fill" xlink:href="#1s42f" />
                </g>
                <g>
                    <use class="desk-icon-fill" xlink:href="#1s42g" />
                </g>
                <g>
                    <use class="desk-icon-fill" xlink:href="#1s42h" />
                </g>
                <g>
                    <use class="desk-icon-fill" xlink:href="#1s42i" />
                </g>
                <g>
                    <use class="desk-icon-fill" xlink:href="#1s42j" />
                </g>
                <g>
                    <use class="desk-icon-fill" xlink:href="#1s42k" />
                </g>
                <g>
                    <use class="desk-icon-fill" xlink:href="#1s42l" />
                </g>
                <g>
                    <use class="desk-icon-fill" xlink:href="#1s42m" />
                </g>
                <g>
                    <use class="desk-icon-fill" xlink:href="#1s42n" />
                </g>
                <g>
                    <use class="desk-icon-fill" xlink:href="#1s42o" />
                </g>
                <g>
                    <use class="desk-icon-fill" xlink:href="#1s42p" />
                </g>
                <g>
                    <use class="desk-icon-fill" xlink:href="#1s42q" />
                </g>
                <g>
                    <use class="desk-icon-fill" xlink:href="#1s42r" />
                </g>
                <g>
                    <use class="desk-icon-fill" xlink:href="#1s42s" />
                </g>
                <g>
                    <use class="desk-icon-fill" xlink:href="#1s42t" />
                </g>
                <g>
                    <use class="desk-icon-fill" xlink:href="#1s42u" />
                </g>
                <g>
                    <use class="desk-icon-fill" xlink:href="#1s42v" />
                </g>
                <g>
                    <use class="desk-icon-fill" xlink:href="#1s42w" />
                </g>
            </g>
        </g>
    </g>
</svg>