<?xml version="1.0" encoding="iso-8859-1"?>
<!-- Generator: Adobe Illustrator 19.0.0, SVG Export Plug-In . SVG Version: 6.00 Build 0)  -->
<svg xmlns="http://www.w3.org/2000/svg" xmlns:xlink="http://www.w3.org/1999/xlink" version="1.1" id="Layer_1" x="0px" y="0px" viewBox="0 0 490.08 490.08" style="enable-background:new 0 0 490.08 490.08;" xml:space="preserve" width="512" height="512">
<g>
	<path style="fill:#ffa85b;" d="M203.45,381.16v-13.09c0-28.95-8.63-55.93-23.46-78.49c-18.16-27.67-45.65-48.7-77.96-58.6v42.07   L0.04,194.22l101.99-78.83v39.43c31.88,6.2,61.81,19.45,87.91,39c6.62,4.94,12.99,10.3,19.09,16.05L203.45,381.16z"/>
	<!-- <path style="fill:#862cc6;" d="M203.45,381.16v-13.09c0-28.95-8.63-55.93-23.46-78.49v-30.44c0-16.8,1.89-33.3,5.58-49.27   c1.25-5.42,2.71-10.77,4.37-16.05c6.62,4.94,12.99,10.3,19.09,16.05L203.45,381.16z"/> -->
	<path style="fill:#ff4182;" d="M277.38,490.08V368.07V259.14c0-67.8,47.32-124.76,110.67-139.59v38.11l101.99-78.83L388.05,0v44.3   c-45.63,6.84-87.73,27.98-120.96,61.2c-29.16,29.16-49.01,65.16-58.06,104.37c-3.69,15.97-5.58,32.47-5.58,49.27v108.93v122.01   H277.38z"/>
</g>


<!-- #448aff   #1565c0   #FF6E40 -->
<!--  -->












</svg>
