<?xml version="1.0" encoding="iso-8859-1"?>
<!-- Generator: Adobe Illustrator 19.0.0, SVG Export Plug-In . SVG Version: 6.00 Build 0)  -->
<svg version="1.1" id="Capa_1" xmlns="http://www.w3.org/2000/svg" xmlns:xlink="http://www.w3.org/1999/xlink" x="0px" y="0px"
	 viewBox="0 0 512 512" style="enable-background:new 0 0 512 512;" xml:space="preserve">
<circle style="fill:#ff4182;" cx="255.998" cy="255.999" r="255.998"/>
<path style="fill:#5C5E70;" d="M512,115.598v140.402c0,141.384-114.614,255.998-255.998,255.998
	c-41.754,0-81.167-9.989-115.983-27.721c-35.035-17.836-65.41-43.499-88.837-74.678h38.024c7.283,0,13.197-5.904,13.197-13.197
	v-76.005c0-7.283,5.904-13.197,13.197-13.197h76.005c7.283,0,13.197-5.904,13.197-13.197v-76.005
	c0-7.283,5.904-13.197,13.197-13.197h76.005c7.283,0,13.197-5.904,13.197-13.197v-76.005c0-7.283,5.904-13.197,13.197-13.197
	h178.405C506.086,102.401,512,108.316,512,115.598z"/>
<path style="fill:#494B5B;" d="M512,115.598v140.402c0,141.384-114.614,255.998-255.998,255.998
	c-41.754,0-81.167-9.989-115.983-27.721v-61.481c0-7.283,5.904-13.197,13.197-13.197h76.005c7.283,0,13.197-5.904,13.197-13.197
	v-76.005c0-7.283,5.904-13.197,13.197-13.197h76.005c7.283,0,13.197-5.904,13.197-13.197v-76.005
	c0-7.283,5.904-13.197,13.197-13.197h76.005c7.283,0,13.197-5.904,13.197-13.197v-76.005c0-7.283,5.904-13.197,13.197-13.197h38.389
	C506.086,102.401,512,108.316,512,115.598z"/>
<path style="fill:#ffa85b;" d="M327.514,4.558v53.394c0,4.065-4.911,6.102-7.784,3.229l-13.03-13.03L14.297,340.553
	c-4.911-14.033-8.631-28.609-11.034-43.635L279.365,20.816l-13.03-13.03c-2.466-2.466-1.317-6.437,1.64-7.513
	c0.481-0.178,1.014-0.272,1.588-0.272h53.394C325.476,0.002,327.514,2.04,327.514,4.558z"/>
<g>
</g>
<g>
</g>
<g>
</g>
<g>
</g>
<g>
</g>
<g>
</g>
<g>
</g>
<g>
</g>
<g>
</g>
<g>
</g>
<g>
</g>
<g>
</g>
<g>
</g>
<g>
</g>
<g>
</g>
</svg>
