<?xml version="1.0"?>
<svg xmlns="http://www.w3.org/2000/svg" xmlns:xlink="http://www.w3.org/1999/xlink" id="Layer_1" data-name="Layer 1" viewBox="0 0 512 512" width="512" height="512"><defs><linearGradient id="linear-gradient" x1="256" y1="20.644" x2="256" y2="491.864" gradientUnits="userSpaceOnUse"><stop offset="0" stop-color="#00efd1"/><stop offset="1" stop-color="#00acea"/></linearGradient><linearGradient id="linear-gradient-3" x1="426.249" y1="20.644" x2="426.249" y2="491.864" xlink:href="#linear-gradient"/><linearGradient id="linear-gradient-4" x1="426.687" y1="20.644" x2="426.687" y2="491.864" xlink:href="#linear-gradient"/><linearGradient id="linear-gradient-5" x1="85.751" y1="20.644" x2="85.751" y2="491.864" xlink:href="#linear-gradient"/><linearGradient id="linear-gradient-6" x1="85.751" y1="20.644" x2="85.751" y2="491.864" xlink:href="#linear-gradient"/></defs><title>Path</title><path d="M339.989,336.862a8,8,0,0,0-11.3-.458,8.293,8.293,0,0,0-.459,11.545L341.881,363H306.248c-23.16,0-41.879-19.083-41.879-42.243,0-.964-.369-2.126-.369-2.982V279h91.1a7.628,7.628,0,0,0,7.9-7.656V178.31A55.352,55.352,0,0,0,307.345,123h0a7.786,7.786,0,0,0-6.446,3.027,55.111,55.111,0,0,1-11.906,11.787A55.746,55.746,0,0,1,211.1,126.086,7.836,7.836,0,0,0,204.658,123h0A55.352,55.352,0,0,0,149,178.31v93.034A7.628,7.628,0,0,0,156.9,279H248V385.453C248,408.613,228.912,427,205.752,427H170.119l13.655-14.582a7.863,7.863,0,0,0-.459-11.191,8,8,0,0,0-11.3.515L145.979,430a8.017,8.017,0,0,0,0,10.86L172.011,469.1a8,8,0,0,0,11.3.464,8.276,8.276,0,0,0,.459-11.531L170.118,443h35.634A58.713,58.713,0,0,0,248,425.39v50.244l-14.933-13.655a8.031,8.031,0,0,0-10.938,11.762l28.217,26.033a7.985,7.985,0,0,0,10.835,0l28.23-26.033a8,8,0,0,0,.457-11.3,7.851,7.851,0,0,0-11.181-.458L264,475.634v-115.7A56.726,56.726,0,0,0,306.248,379h35.634l-13.656,14.569a7.879,7.879,0,0,0,5.879,13.242,8.009,8.009,0,0,0,5.884-2.608l26.032-28.247a8.008,8.008,0,0,0,0-10.853ZM165,178.309a39.8,39.8,0,0,1,35.954-39.6,71.74,71.74,0,0,0,97.523,11.883A72.485,72.485,0,0,0,311.1,138.552,40.126,40.126,0,0,1,347.053,178H347v85H165Z" style="fill:url(#linear-gradient)"/><path d="M256,132.287A61.09,61.09,0,1,0,194.91,71.2,61.159,61.159,0,0,0,256,132.287Zm0-106.18A45.09,45.09,0,1,1,210.91,71.2,45.141,45.141,0,0,1,256,26.107Z" style="fill:url(#linear-gradient)"/><path d="M426.249,20A65.751,65.751,0,1,0,492,85.751,65.826,65.826,0,0,0,426.249,20Zm0,115.5A49.751,49.751,0,1,1,476,85.751,49.807,49.807,0,0,1,426.249,135.5Z" style="fill:url(#linear-gradient-3)"/><path d="M449.314,63.124a8,8,0,0,0-11.314,0L426.687,74.437,415.373,63.124a8,8,0,0,0-11.314,11.313l11.314,11.314L404.059,97.065a8,8,0,1,0,11.314,11.313l11.314-11.313L438,108.378a8,8,0,1,0,11.314-11.313L438,85.751l11.314-11.314A8,8,0,0,0,449.314,63.124Z" style="fill:url(#linear-gradient-4)"/><path d="M119.255,63.1a8,8,0,0,0-11.309-.326L77.325,91.683,63.8,77.792A8,8,0,1,0,52.333,88.955l19.024,19.533a8,8,0,0,0,11.223.236l36.349-34.311A8,8,0,0,0,119.255,63.1Z" style="fill:url(#linear-gradient-5)"/><path d="M85.751,20A65.751,65.751,0,1,0,151.5,85.751,65.826,65.826,0,0,0,85.751,20Zm0,115.5A49.751,49.751,0,1,1,135.5,85.751,49.807,49.807,0,0,1,85.751,135.5Z" style="fill:url(#linear-gradient-6)"/></svg>
