<svg xmlns="http://www.w3.org/2000/svg" xmlns:xlink="http://www.w3.org/1999/xlink" width="75" height="77" viewBox="0 0 75 77">
    <defs>
        <path id="vv2ta" d="M1276.332 820.337c-.623 0-1.129.505-1.129 1.128v3.435c0 .623.506 1.128 1.129 1.128h46.443c.623 0 1.128-.505 1.128-1.128v-10.205a1.129 1.129 0 0 0-2.257 0v9.077h-6.562v-13.893a1.129 1.129 0 0 0-2.257 0v13.893h-26.548v-13.893a1.129 1.129 0 0 0-2.256 0v13.893h-6.563v-2.307c0-.623-.504-1.128-1.128-1.128z" />
        <path id="vv2tb" d="M1293.513 776.16c0-.623-.506-1.129-1.129-1.129h-.176a1.129 1.129 0 0 0 0 2.257h.176c.625 0 1.129-.504 1.129-1.128z" />
        <path id="vv2tc" d="M1306.9 775.031h-.177a1.129 1.129 0 0 0 0 2.257h.176a1.129 1.129 0 0 0 0-2.257z" />
        <path id="vv2td" d="M1303.978 810.045a1.13 1.13 0 0 0-.233.719l.114 4.166-3.927-1.396a1.12 1.12 0 0 0-.755 0l-3.927 1.396.115-4.166a1.13 1.13 0 0 0-.233-.72l-2.541-3.301 3.997-1.178c.25-.074.465-.23.612-.444l2.356-3.438 2.356 3.438c.148.213.363.371.613.444l3.997 1.178zm5.512-4.268a1.13 1.13 0 0 0-.754-.734l-5.191-1.53-3.06-4.466a1.128 1.128 0 0 0-1.863 0l-3.06 4.465-5.192 1.53a1.126 1.126 0 0 0-.575 1.771l3.301 4.29-.149 5.41a1.127 1.127 0 0 0 1.506 1.093l5.1-1.813 5.1 1.813a1.132 1.132 0 0 0 1.041-.15c.301-.218.476-.572.465-.943l-.149-5.41 3.301-4.29c.227-.295.295-.683.18-1.036z" />
        <path id="vv2te" d="M1327.24 800.027a1.13 1.13 0 0 0-.233.719l.088 3.206-3.022-1.074a1.126 1.126 0 0 0-.757 0l-3.022 1.074.089-3.206a1.13 1.13 0 0 0-.234-.72l-1.955-2.542 3.076-.907c.248-.074.465-.23.613-.444l1.812-2.645 1.813 2.645c.148.214.363.372.613.444l3.076.907zm-44.15-22.608c0-.092-.012-.18-.033-.266.25-.977.973-2.525 2.914-4.697 2.351-2.635 5.723-2.486 10.39-2.281 2.985.13 6.368.28 10.07-.35 2.132-.362 3.884-.975 5.248-1.829 1.142 1.045 2.117 2.511 2.905 4.374a22.054 22.054 0 0 1 1.436 5.115 16.426 16.426 0 0 1-.577 4.265c-1.94 7.144-8.473 12.134-15.887 12.134-9.08 0-16.466-7.387-16.466-16.465zm-5.19-.525c0-.856.273-1.675.755-2.353.7 2.788 1.817 4.36 2.29 4.929.052.473.121.941.207 1.405a4.07 4.07 0 0 1-3.253-3.981zm2.545-10.18c.976-9.76 5.616-11.823 7.015-12.223.598-.172.945-.793.777-1.39l-.297-1.053c1.84.261 4.82.44 8.025-.361 3.483-.873 10.599-.583 14.353 2.222.832.621 1.453 1.324 1.874 2.116a.75.75 0 0 0 .03.06c.382.742.592 1.562.63 2.471.013.289.037.596.064.92.111 1.401.251 3.145-.525 4.636a4.909 4.909 0 0 1-1.303 1.557c-.006.005-.01.01-.017.012-1.135.906-2.796 1.54-5.02 1.918-3.465.589-6.72.446-9.592.32-4.887-.216-9.107-.4-12.173 3.032-1.58 1.77-2.502 3.256-3.021 4.467a15.33 15.33 0 0 1-.757-3.104 1.097 1.097 0 0 0-.022-.17c-.199-1.49-.255-3.288-.041-5.43zm40.108 7.967c.42.648.655 1.413.655 2.213 0 1.963-1.4 3.606-3.254 3.98.175-.932.28-1.881.312-2.838.63-.49 1.563-1.478 2.287-3.355zm-41.594 25.346a1.13 1.13 0 0 0-.234.719l.09 3.206-3.023-1.074a1.12 1.12 0 0 0-.756 0l-3.022 1.074.089-3.206a1.13 1.13 0 0 0-.234-.72l-1.955-2.542 3.076-.907c.25-.074.465-.23.613-.444l1.813-2.645 1.812 2.645c.148.214.363.372.613.444l3.076.907zm52.454-4.241l-4.27-1.26-2.518-3.672a1.128 1.128 0 0 0-1.862 0l-2.198 3.207a8.62 8.62 0 0 0-5.356-1.846h-4.198a18.669 18.669 0 0 0 6.348-9.008 6.325 6.325 0 0 0 6.105-6.313 6.307 6.307 0 0 0-2.204-4.796c.111-.6.198-1.234.258-1.897a1.128 1.128 0 1 0-2.247-.202 17.207 17.207 0 0 1-.358 2.317c-.292 1.273-.69 2.168-1.069 2.79a24.03 24.03 0 0 0-1.185-3.613c-.865-2.046-1.95-3.703-3.235-4.948.381-.428.706-.888.966-1.387 1.076-2.068.901-4.258.774-5.859a24.37 24.37 0 0 1-.058-.836 8.87 8.87 0 0 0-.03-.455c1.696 1.365 3.781 3.837 4.21 7.92a1.129 1.129 0 0 0 2.244-.235 13.678 13.678 0 0 0-7.505-11.011c-.568-.966-1.353-1.828-2.356-2.579-4.365-3.263-12.242-3.609-16.252-2.605-4.55 1.138-8.715.018-8.754.007a1.126 1.126 0 0 0-1.101.29c-.29.29-.4.71-.288 1.103l.509 1.809c-1.302.573-2.874 1.653-4.294 3.683-1.763 2.52-2.87 5.917-3.289 10.1-.204 2.04-.18 3.813-.018 5.344a6.338 6.338 0 0 0-2.538 5.061 6.323 6.323 0 0 0 6.107 6.313 18.793 18.793 0 0 0 6.349 9.009h-4.2a8.62 8.62 0 0 0-5.355 1.846l-2.201-3.21a1.128 1.128 0 0 0-1.863 0l-2.517 3.673-4.27 1.26a1.126 1.126 0 0 0-.576 1.77l2.716 3.53-.122 4.45a1.127 1.127 0 0 0 1.506 1.094l3.985-1.417v11.725a1.129 1.129 0 0 0 2.257 0v-11.073l2.148.765a1.13 1.13 0 0 0 1.506-1.094l-.121-4.45 2.715-3.53a1.13 1.13 0 0 0-.575-1.77l-2.13-.628a6.394 6.394 0 0 1 2.896-.686h7.932a18.613 18.613 0 0 0 7.724 1.669 18.65 18.65 0 0 0 7.707-1.669h7.948c1.025 0 2.01.238 2.896.686l-2.13.628a1.126 1.126 0 0 0-.575 1.77l2.716 3.53-.122 4.45a1.127 1.127 0 0 0 1.506 1.094l2.148-.765v4.016a1.129 1.129 0 0 0 2.257 0v-4.668l3.985 1.417a1.133 1.133 0 0 0 1.041-.15c.301-.219.476-.572.465-.944l-.122-4.45 2.716-3.53a1.13 1.13 0 0 0-.578-1.77z" />
        <path id="vv2tf" d="M1333.392 782.576a1.13 1.13 0 0 0-.234.72l.032 1.128-1.064-.378a1.12 1.12 0 0 0-.755 0l-1.063.378.031-1.129a1.13 1.13 0 0 0-.233-.719l-.69-.895 1.084-.319c.25-.074.465-.23.612-.444l.638-.93.638.93c.148.214.363.372.613.444l1.083.32zm2.905-2.593l-2.278-.671-1.342-1.96a1.128 1.128 0 0 0-1.863 0l-1.341 1.96-2.278.67a1.126 1.126 0 0 0-.575 1.771l1.447 1.882-.064 2.373a1.127 1.127 0 0 0 1.506 1.094l2.237-.796 2.237.796a1.129 1.129 0 0 0 1.506-1.094l-.065-2.373 1.447-1.882a1.13 1.13 0 0 0-.574-1.77z" />
        <path id="vv2tg" d="M1266.983 784.046l-1.064.378.032-1.129a1.13 1.13 0 0 0-.233-.719l-.69-.895 1.084-.319c.25-.074.465-.23.612-.444l.638-.93.638.93c.147.214.363.372.612.444l1.084.32-.69.894a1.13 1.13 0 0 0-.233.72l.032 1.128-1.064-.378a1.131 1.131 0 0 0-.758 0zm2.615 3.056a1.132 1.132 0 0 0 1.04-.15c.302-.219.476-.572.466-.944l-.065-2.373 1.447-1.882a1.13 1.13 0 0 0-.574-1.77l-2.278-.671-1.342-1.96a1.128 1.128 0 0 0-1.863 0l-1.342 1.96-2.277.67a1.126 1.126 0 0 0-.575 1.771l1.447 1.882-.065 2.373a1.127 1.127 0 0 0 1.506 1.094l2.238-.796z" />
        <path id="vv2th" d="M1303.958 784.22a4.558 4.558 0 0 1-8.807 0c-.001-.007-.004-.016.006-.03.01-.013.017-.013.024-.013h8.747c.008 0 .015 0 .026.012.009.015.007.024.004.032zm-.03-2.298h-8.747a2.27 2.27 0 0 0-1.813.892 2.277 2.277 0 0 0-.398 1.986 6.817 6.817 0 0 0 6.585 5.062 6.817 6.817 0 0 0 6.585-5.062 2.277 2.277 0 0 0-.399-1.986 2.272 2.272 0 0 0-1.813-.892z" />
        <style>
            .desk-icon-fill {
                fill="#9a9a9a"
            }
        </style>
    </defs>
    <g>
        <g transform="translate(-1262 -749)">
            <g>
                <use class="desk-icon-fill" xlink:href="#vv2ta" />
            </g>
            <g>
                <use class="desk-icon-fill" xlink:href="#vv2tb" />
            </g>
            <g>
                <use class="desk-icon-fill" xlink:href="#vv2tc" />
            </g>
            <g>
                <use class="desk-icon-fill" xlink:href="#vv2td" />
            </g>
            <g>
                <use class="desk-icon-fill" xlink:href="#vv2te" />
            </g>
            <g>
                <use class="desk-icon-fill" xlink:href="#vv2tf" />
            </g>
            <g>
                <use class="desk-icon-fill" xlink:href="#vv2tg" />
            </g>
            <g>
                <use class="desk-icon-fill" xlink:href="#vv2th" />
            </g>
        </g>
    </g>
</svg>